<svg width="24" height="24" viewBox="0 0 24 24" fill="none" xmlns="http://www.w3.org/2000/svg">
<path d="M7.74838 11.5191L8.78478 10.4525L11.2412 12.9089L11.2625 12.9302V12.9V4.5125H12.7375V12.9V12.9302L12.7588 12.9089L15.2152 10.4525L16.2516 11.5191L12 15.7707L7.74838 11.5191ZM6.30773 19.4875C5.80584 19.4875 5.38147 19.3137 5.03387 18.9661C4.68627 18.6185 4.51253 18.1941 4.51253 17.6923V14.9932H5.98751V17.6923C5.98751 17.7731 6.02132 17.8467 6.08732 17.9127C6.15333 17.9787 6.2269 18.0125 6.30773 18.0125H17.6923C17.7731 18.0125 17.8467 17.9787 17.9127 17.9127C17.9787 17.8467 18.0125 17.7731 18.0125 17.6923V14.9932H19.4875V17.6923C19.4875 18.1941 19.3137 18.6185 18.9661 18.9661C18.6185 19.3137 18.1942 19.4875 17.6923 19.4875H6.30773Z" fill="#FCFCFC" stroke="#FCFCFC" stroke-width="0.025"/>
</svg>
