<svg width="14" height="19" viewBox="0 0 14 19" fill="none" xmlns="http://www.w3.org/2000/svg">
<path d="M7 16L2.1 18.1C1.6 18.3167 1.125 18.277 0.675 17.9811C0.225 17.6852 0 17.2665 0 16.725V2.375C0 1.975 0.15 1.625 0.45 1.325C0.75 1.025 1.1 0.875 1.5 0.875H12.5C12.9 0.875 13.25 1.025 13.55 1.325C13.85 1.625 14 1.975 14 2.375V16.725C14 17.2665 13.775 17.6852 13.325 17.9811C12.875 18.277 12.4 18.3167 11.9 18.1L7 16ZM7 14.4L12.5 16.725V2.375H1.5V16.725L7 14.4ZM7 2.375H1.5H12.5H7Z" fill="#323334"/>
</svg>
