<svg width="25" height="20" viewBox="0 0 25 20" fill="none" xmlns="http://www.w3.org/2000/svg">
<path d="M9.25 15.0625L12.5 12.5312L15.75 15.0625L14.5 11.0625L17.5625 8.5H13.8125L12.5 4.6875L11.1875 8.5H7.4375L10.5 11.0625L9.25 15.0625ZM1.875 20C1.35417 20 0.911458 19.8177 0.546875 19.4531C0.182292 19.0885 0 18.6458 0 18.125V14C0 13.7917 0.0572917 13.6094 0.171875 13.4531C0.286458 13.2969 0.4375 13.1875 0.625 13.125C1.27083 12.8958 1.77604 12.4844 2.14062 11.8906C2.50521 11.2969 2.6875 10.6667 2.6875 10C2.6875 9.35417 2.50521 8.72917 2.14062 8.125C1.77604 7.52083 1.27083 7.10417 0.625 6.875C0.4375 6.8125 0.286458 6.70312 0.171875 6.54688C0.0572917 6.39062 0 6.20833 0 6V1.875C0 1.35417 0.182292 0.911458 0.546875 0.546875C0.911458 0.182292 1.35417 0 1.875 0H23.125C23.6458 0 24.0885 0.182292 24.4531 0.546875C24.8177 0.911458 25 1.35417 25 1.875V6C25 6.20833 24.9427 6.39062 24.8281 6.54688C24.7135 6.70312 24.5625 6.8125 24.375 6.875C23.7292 7.10417 23.224 7.52083 22.8594 8.125C22.4948 8.72917 22.3125 9.35417 22.3125 10C22.3125 10.6667 22.4948 11.2969 22.8594 11.8906C23.224 12.4844 23.7292 12.8958 24.375 13.125C24.5625 13.1875 24.7135 13.2969 24.8281 13.4531C24.9427 13.6094 25 13.7917 25 14V18.125C25 18.6458 24.8177 19.0885 24.4531 19.4531C24.0885 19.8177 23.6458 20 23.125 20H1.875ZM1.875 18.125H23.125V14.7188C22.3333 14.1771 21.6875 13.5 21.1875 12.6875C20.6875 11.875 20.4375 10.9792 20.4375 10C20.4375 9.02083 20.6875 8.125 21.1875 7.3125C21.6875 6.5 22.3333 5.82292 23.125 5.28125V1.875H1.875V5.28125C2.6875 5.82292 3.33854 6.5 3.82812 7.3125C4.31771 8.125 4.5625 9.02083 4.5625 10C4.5625 10.9792 4.31771 11.875 3.82812 12.6875C3.33854 13.5 2.6875 14.1771 1.875 14.7188V18.125Z" fill="#323334"/>
</svg>
