<svg width="20" height="23" viewBox="0 0 20 23" fill="none" xmlns="http://www.w3.org/2000/svg">
<path d="M0 20.375V8.1875C0 7.89062 0.0664062 7.60938 0.199219 7.34375C0.332031 7.07812 0.515625 6.85938 0.75 6.6875L8.875 0.59375C9.20167 0.34375 9.575 0.21875 9.995 0.21875C10.415 0.21875 10.7917 0.34375 11.125 0.59375L19.25 6.6875C19.4844 6.85938 19.668 7.07812 19.8008 7.34375C19.9336 7.60938 20 7.89062 20 8.1875V20.375C20 20.8906 19.8164 21.332 19.4492 21.6992C19.082 22.0664 18.6406 22.25 18.125 22.25H13.4375C13.1719 22.25 12.9492 22.1602 12.7695 21.9805C12.5898 21.8008 12.5 21.5781 12.5 21.3125V14.4375C12.5 14.1719 12.4102 13.9492 12.2305 13.7695C12.0508 13.5898 11.8281 13.5 11.5625 13.5H8.4375C8.17188 13.5 7.94922 13.5898 7.76953 13.7695C7.58984 13.9492 7.5 14.1719 7.5 14.4375V21.3125C7.5 21.5781 7.41016 21.8008 7.23047 21.9805C7.05078 22.1602 6.82812 22.25 6.5625 22.25H1.875C1.35938 22.25 0.917969 22.0664 0.550781 21.6992C0.183594 21.332 0 20.8906 0 20.375Z" fill="#323334"/>
</svg>
