<svg width="21" height="26" viewBox="0 0 21 26" fill="none" xmlns="http://www.w3.org/2000/svg">
<path d="M0.25 21.75V19.875H2.75V10.375C2.75 8.625 3.26562 7.05729 4.29688 5.67188C5.32812 4.28646 6.6875 3.41667 8.375 3.0625V2.375C8.375 1.85417 8.55729 1.41146 8.92188 1.04688C9.28646 0.682292 9.72917 0.5 10.25 0.5C10.7708 0.5 11.2135 0.682292 11.5781 1.04688C11.9427 1.41146 12.125 1.85417 12.125 2.375V3.0625C13.8125 3.41667 15.1719 4.28646 16.2031 5.67188C17.2344 7.05729 17.75 8.625 17.75 10.375V19.875H20.25V21.75H0.25ZM10.25 25.5C9.5625 25.5 8.97396 25.2552 8.48438 24.7656C7.99479 24.276 7.75 23.6875 7.75 23H12.75C12.75 23.6875 12.5052 24.276 12.0156 24.7656C11.526 25.2552 10.9375 25.5 10.25 25.5ZM4.625 19.875H15.875V10.375C15.875 8.8125 15.3281 7.48438 14.2344 6.39062C13.1406 5.29688 11.8125 4.75 10.25 4.75C8.6875 4.75 7.35938 5.29688 6.26562 6.39062C5.17188 7.48438 4.625 8.8125 4.625 10.375V19.875Z" fill="#323334"/>
</svg>
