<svg width="22" height="22" viewBox="0 0 22 22" fill="none" xmlns="http://www.w3.org/2000/svg">
<path fill-rule="evenodd" clip-rule="evenodd" d="M10.25 1.75C5.41751 1.75 1.5 5.66751 1.5 10.5C1.5 15.3325 5.41751 19.25 10.25 19.25C15.0825 19.25 19 15.3325 19 10.5C19 5.66751 15.0825 1.75 10.25 1.75ZM0 10.5C0 4.83908 4.58908 0.25 10.25 0.25C15.9109 0.25 20.5 4.83908 20.5 10.5C20.5 13.0605 19.5611 15.4017 18.0089 17.1982L21.2803 20.4697C21.5732 20.7626 21.5732 21.2374 21.2803 21.5303C20.9874 21.8232 20.5126 21.8232 20.2197 21.5303L16.9482 18.2589C15.1517 19.8111 12.8105 20.75 10.25 20.75C4.58908 20.75 0 16.1609 0 10.5Z" fill="#323334"/>
</svg>
