<svg width="32" height="32" viewBox="0 0 32 32" fill="none" xmlns="http://www.w3.org/2000/svg">
<mask id="mask0_9_421" style="mask-type:luminance" maskUnits="userSpaceOnUse" x="0" y="0" width="32" height="32">
<path d="M32 0H0V32H32V0Z" fill="white"/>
</mask>
<g mask="url(#mask0_9_421)">
<path d="M29.6313 0H2.36267C1.056 0 0 1.03125 0 2.30625V29.6875C0 30.9625 1.056 32 2.36267 32H29.6313C30.9373 32 32 30.9625 32 29.6937V2.30625C32 1.03125 30.9373 0 29.6313 0ZM9.494 27.2687H4.744V11.9937H9.494V27.2687ZM7.11867 9.91253C5.59401 9.91253 4.36267 8.68127 4.36267 7.16247C4.36267 5.64375 5.59401 4.4125 7.11867 4.4125C8.63734 4.4125 9.86867 5.64375 9.86867 7.16247C9.86867 8.675 8.63734 9.91253 7.11867 9.91253ZM27.2687 27.2687H22.5247V19.8437C22.5247 18.075 22.494 15.7937 20.056 15.7937C17.5873 15.7937 17.2127 17.725 17.2127 19.7187V27.2687H12.4753V11.9937H17.0247V14.0813H17.0873C17.7187 12.8813 19.2687 11.6125 21.5753 11.6125C26.3813 11.6125 27.2687 14.775 27.2687 18.8875V27.2687Z" fill="white"/>
</g>
</svg>
