<svg width="33" height="32" viewBox="0 0 33 32" fill="none" xmlns="http://www.w3.org/2000/svg">
<mask id="mask0_9_427" style="mask-type:luminance" maskUnits="userSpaceOnUse" x="0" y="0" width="33" height="32">
<path d="M32.3333 0H0.333344V32H32.3333V0Z" fill="white"/>
</mask>
<g mask="url(#mask0_9_427)">
<path fill-rule="evenodd" clip-rule="evenodd" d="M32.3333 16C32.3333 24.8367 25.17 32 16.3333 32C7.49668 32 0.333344 24.8367 0.333344 16C0.333344 7.16333 7.49668 0 16.3333 0C25.17 0 32.3333 7.16333 32.3333 16ZM16.9067 11.812C15.3507 12.4593 12.24 13.7987 7.57602 15.8313C6.81869 16.132 6.42201 16.4267 6.38535 16.7153C6.32468 17.202 6.93399 17.394 7.76466 17.6547C7.87733 17.6907 7.99468 17.7273 8.11468 17.766C8.93134 18.032 10.0307 18.3427 10.602 18.3547C11.12 18.366 11.698 18.152 12.3367 17.714C16.6947 14.772 18.9447 13.2853 19.086 13.2533C19.1854 13.2307 19.3233 13.202 19.4173 13.2853C19.5107 13.368 19.5013 13.526 19.4913 13.568C19.4313 13.8253 17.0373 16.0507 15.7987 17.2027C15.4127 17.5613 15.1387 17.816 15.0827 17.874C14.9574 18.0047 14.8293 18.128 14.7067 18.246C13.948 18.978 13.3787 19.5267 14.738 20.4227C15.3913 20.8527 15.9147 21.2087 16.436 21.564C17.0053 21.952 17.574 22.3393 18.3087 22.8207C18.496 22.9433 18.6747 23.0713 18.8493 23.1953C19.512 23.668 20.1074 24.0927 20.8434 24.0247C21.2707 23.9853 21.7127 23.5833 21.9367 22.3847C22.4667 19.5507 23.5087 13.4113 23.7494 10.8813C23.7707 10.6593 23.744 10.376 23.7227 10.2513C23.7013 10.1267 23.6573 9.94934 23.4953 9.818C23.3033 9.66267 23.0073 9.63 22.8753 9.632C22.2733 9.64267 21.35 9.964 16.9067 11.812Z" fill="white"/>
</g>
</svg>
