<svg width="32" height="32" viewBox="0 0 32 32" fill="none" xmlns="http://www.w3.org/2000/svg">
<mask id="mask0_9_414" style="mask-type:luminance" maskUnits="userSpaceOnUse" x="0" y="0" width="32" height="32">
<path d="M32 0H0V32H32V0Z" fill="white"/>
</mask>
<g mask="url(#mask0_9_414)">
<path d="M16 2.88125C20.2753 2.88125 20.7813 2.9 22.4627 2.975C24.0253 3.04375 24.8687 3.30625 25.4313 3.525C26.1753 3.8125 26.7127 4.1625 27.2687 4.71875C27.8313 5.28125 28.1753 5.8125 28.4627 6.55625C28.6813 7.11873 28.944 7.96873 29.0127 9.525C29.0873 11.2125 29.106 11.7187 29.106 15.9875C29.106 20.2625 29.0873 20.7687 29.0127 22.45C28.944 24.0125 28.6813 24.8563 28.4627 25.4187C28.1753 26.1625 27.8253 26.7 27.2687 27.2563C26.706 27.8187 26.1753 28.1625 25.4313 28.45C24.8687 28.6687 24.0187 28.9313 22.4627 29C20.7753 29.075 20.2687 29.0937 16 29.0937C11.7253 29.0937 11.2187 29.075 9.53733 29C7.97533 28.9313 7.13133 28.6687 6.56866 28.45C5.82533 28.1625 5.28732 27.8125 4.73132 27.2563C4.16866 26.6937 3.82533 26.1625 3.53733 25.4187C3.31867 24.8563 3.05599 24.0063 2.98733 22.45C2.91266 20.7625 2.894 20.2563 2.894 15.9875C2.894 11.7125 2.91266 11.2063 2.98733 9.525C3.05599 7.96247 3.31867 7.11873 3.53733 6.55625C3.82533 5.8125 4.17532 5.275 4.73132 4.71875C5.29399 4.15625 5.82533 3.8125 6.56866 3.525C7.13133 3.30625 7.98133 3.04375 9.53733 2.975C11.2187 2.9 11.7253 2.88125 16 2.88125ZM16 0C11.656 0 11.1127 0.01875 9.40601 0.09375C7.70601 0.16875 6.53733 0.44375 5.52533 0.8375C4.46866 1.25 3.57534 1.79375 2.68734 2.6875C1.794 3.575 1.25001 4.46875 0.837341 5.51875C0.444008 6.5375 0.168661 7.7 0.0939941 9.4C0.0186608 11.1125 0 11.6563 0 16C0 20.3437 0.0186608 20.8875 0.0939941 22.5937C0.168661 24.2937 0.444008 25.4625 0.837341 26.475C1.25001 27.5313 1.794 28.425 2.68734 29.3125C3.57534 30.2 4.46868 30.75 5.51868 31.1563C6.53734 31.55 7.7 31.825 9.4 31.9C11.106 31.975 11.65 31.9937 15.994 31.9937C20.3373 31.9937 20.8813 31.975 22.5873 31.9C24.2873 31.825 25.456 31.55 26.4687 31.1563C27.5187 30.75 28.4127 30.2 29.3 29.3125C30.1873 28.425 30.7373 27.5313 31.144 26.4813C31.5373 25.4625 31.8127 24.3 31.8873 22.6C31.9627 20.8937 31.9813 20.35 31.9813 16.0063C31.9813 11.6625 31.9627 11.1187 31.8873 9.41253C31.8127 7.71253 31.5373 6.54375 31.144 5.53125C30.75 4.46875 30.206 3.575 29.3127 2.6875C28.4253 1.8 27.5313 1.25 26.4813 0.843747C25.4627 0.45 24.3 0.175 22.6 0.1C20.8873 0.01875 20.344 0 16 0Z" fill="white"/>
<path d="M16 7.78125C11.4627 7.78125 7.78133 11.4625 7.78133 16C7.78133 20.5375 11.4627 24.2187 16 24.2187C20.5373 24.2187 24.2187 20.5375 24.2187 16C24.2187 11.4625 20.5373 7.78125 16 7.78125ZM16 21.3313C13.056 21.3313 10.6687 18.9437 10.6687 16C10.6687 13.0563 13.056 10.6687 16 10.6687C18.944 10.6687 21.3313 13.0563 21.3313 16C21.3313 18.9437 18.944 21.3313 16 21.3313Z" fill="white"/>
<path d="M26.4627 7.45612C26.4627 8.51859 25.6 9.37485 24.544 9.37485C23.4813 9.37485 22.6253 8.51239 22.6253 7.45612C22.6253 6.39361 23.4873 5.53735 24.544 5.53735C25.6 5.53735 26.4627 6.39985 26.4627 7.45612Z" fill="white"/>
</g>
</svg>
