<svg width="20" height="20" viewBox="0 0 20 20" fill="none" xmlns="http://www.w3.org/2000/svg">
<path d="M10.0016 19.4287C8.68772 19.4287 7.45268 19.1793 6.29655 18.6807C5.1404 18.182 4.13472 17.5052 3.2795 16.6504C2.42427 15.7956 1.74721 14.7903 1.24833 13.6347C0.749442 12.4791 0.5 11.2443 0.5 9.93036C0.5 8.61643 0.749334 7.38139 1.248 6.22526C1.74667 5.06911 2.42342 4.06343 3.27825 3.20821C4.1331 2.35298 5.13834 1.67592 6.29398 1.17704C7.44959 0.678154 8.68437 0.428711 9.9983 0.428711C11.3122 0.428711 12.5473 0.678045 13.7034 1.17671C14.8596 1.67538 15.8652 2.35213 16.7205 3.20696C17.5757 4.06181 18.2527 5.06705 18.7516 6.22269C19.2505 7.3783 19.5 8.61308 19.5 9.92701C19.5 11.2409 19.2506 12.476 18.752 13.6321C18.2533 14.7883 17.5765 15.7939 16.7217 16.6492C15.8669 17.5044 14.8616 18.1815 13.706 18.6803C12.5504 19.1792 11.3156 19.4287 10.0016 19.4287ZM8.99998 17.8787V15.9287C8.44998 15.9287 7.97914 15.7329 7.58748 15.3412C7.19581 14.9495 6.99998 14.4787 6.99998 13.9287V12.9287L2.19998 8.12869C2.14998 8.42869 2.10414 8.72869 2.06248 9.02869C2.02081 9.32869 1.99998 9.62869 1.99998 9.92869C1.99998 11.9454 2.66248 13.712 3.98748 15.2287C5.31248 16.7454 6.98331 17.6287 8.99998 17.8787ZM15.9 15.3287C16.2333 14.962 16.5333 14.5662 16.8 14.1412C17.0666 13.7162 17.2875 13.2745 17.4625 12.8162C17.6375 12.3579 17.7708 11.887 17.8625 11.4037C17.9541 10.9204 18 10.4287 18 9.92869C18 8.29052 17.5474 6.79444 16.6423 5.44044C15.7372 4.08645 14.5231 3.10946 13 2.50946V2.92869C13 3.47869 12.8041 3.94952 12.4125 4.34119C12.0208 4.73285 11.55 4.92869 11 4.92869H8.99998V6.92869C8.99998 7.21202 8.90414 7.44952 8.71248 7.64119C8.52081 7.83285 8.28331 7.92869 7.99998 7.92869H5.99998V9.92869H12C12.2833 9.92869 12.5208 10.0245 12.7125 10.2162C12.9041 10.4079 13 10.6454 13 10.9287V13.9287H14C14.4333 13.9287 14.825 14.0579 15.175 14.3162C15.525 14.5745 15.7666 14.912 15.9 15.3287Z" fill="#FCFCFC"/>
</svg>
