<svg width="20" height="16" viewBox="0 0 20 16" fill="none" xmlns="http://www.w3.org/2000/svg">
<path d="M2.3077 15.4287C1.80257 15.4287 1.375 15.2537 1.025 14.9037C0.675 14.5537 0.5 14.1261 0.5 13.621V2.23641C0.5 1.73128 0.675 1.30371 1.025 0.953711C1.375 0.603711 1.80257 0.428711 2.3077 0.428711H17.6923C18.1974 0.428711 18.625 0.603711 18.975 0.953711C19.325 1.30371 19.5 1.73128 19.5 2.23641V13.621C19.5 14.1261 19.325 14.5537 18.975 14.9037C18.625 15.2537 18.1974 15.4287 17.6923 15.4287H2.3077ZM9.99998 8.32096C10.0833 8.32096 10.166 8.30846 10.2481 8.28346C10.3301 8.25846 10.4096 8.22417 10.4865 8.18059L17.6385 3.60171C17.7526 3.53121 17.8333 3.43987 17.8808 3.32769C17.9282 3.2155 17.9423 3.09724 17.9231 2.97289C17.9102 2.74212 17.7974 2.57065 17.5846 2.45849C17.3718 2.3463 17.157 2.35624 16.9404 2.48829L9.99998 6.92869L3.05958 2.48829C2.84291 2.35624 2.62978 2.34566 2.42018 2.45656C2.21056 2.56744 2.09613 2.73634 2.0769 2.96326C2.05767 3.09788 2.07177 3.22288 2.1192 3.33826C2.16663 3.45364 2.2474 3.54146 2.3615 3.60171L9.51345 8.18059C9.59037 8.22417 9.66985 8.25846 9.7519 8.28346C9.83395 8.30846 9.91664 8.32096 9.99998 8.32096Z" fill="#FCFCFC"/>
</svg>
