<svg width="18" height="18" viewBox="0 0 18 18" fill="none" xmlns="http://www.w3.org/2000/svg">
<path d="M16.4403 17.4287C14.5557 17.4287 12.6625 16.9905 10.7606 16.1142C8.85863 15.238 7.1096 14.0017 5.51345 12.4056C3.92372 10.8094 2.69071 9.06201 1.81442 7.16331C0.938142 5.2646 0.5 3.37294 0.5 1.48834C0.5 1.18834 0.6 0.936736 0.8 0.733536C1 0.530319 1.25 0.428711 1.55 0.428711H4.8115C5.06407 0.428711 5.28682 0.511086 5.47977 0.675836C5.67272 0.840586 5.79548 1.04411 5.84803 1.28641L6.4211 4.22869C6.46085 4.50177 6.45252 4.73639 6.3961 4.93254C6.3397 5.12869 6.23842 5.29343 6.09225 5.42676L3.78265 7.67484C4.15445 8.3556 4.57913 8.99951 5.0567 9.60656C5.53427 10.2136 6.05125 10.7934 6.60765 11.346C7.15638 11.8947 7.73973 12.4043 8.35768 12.8749C8.97563 13.3454 9.64293 13.7832 10.3596 14.1883L12.6038 11.9249C12.7602 11.762 12.9497 11.6479 13.1721 11.5826C13.3945 11.5172 13.6256 11.5012 13.8654 11.5345L16.6423 12.0999C16.8948 12.1665 17.1009 12.2954 17.2605 12.4864C17.4201 12.6774 17.5 12.8941 17.5 13.1364V16.3787C17.5 16.6787 17.3983 16.9287 17.1951 17.1287C16.9919 17.3287 16.7403 17.4287 16.4403 17.4287Z" fill="#FCFCFC"/>
</svg>
